PathFileType	4	(X/Y/Z)	C:/Users/opensim2020/Desktop/walking_exp_matlab/subject06_walking12_straigt_04.trc	
DataRate	CameraRate	NumFrames	NumMarkers	Units	OrigDataRate	OrigDataStartFrame	OrigNumFrames	
100.00	100.00	6	48	mm	100.00	2766	181	
Frame#	Time	LFHD			RFHD			LBHD			RBHD			C7			T10			CLAV			STRN			RBAK			LSHO			LUPA			LELB			LFRM			LWRA			LWRB			LFIN			RSHO			RUPA			RELB			RFRM			RWRA			RWRB			RFIN			LASI			RASI			LPSI			RPSI			LTHI			LKNE			LTIB			LANK			LHEE			LTOE			RTHI			RKNE			RTIB			RANK			RHEE			RTOE			*39			*40			*41			*42			*43			*44			*45			*46			*47			
		X1	Y1	Z1	X2	Y2	Z2	X3	Y3	Z3	X4	Y4	Z4	X5	Y5	Z5	X6	Y6	Z6	X7	Y7	Z7	X8	Y8	Z8	X9	Y9	Z9	X10	Y10	Z10	X11	Y11	Z11	X12	Y12	Z12	X13	Y13	Z13	X14	Y14	Z14	X15	Y15	Z15	X16	Y16	Z16	X17	Y17	Z17	X18	Y18	Z18	X19	Y19	Z19	X20	Y20	Z20	X21	Y21	Z21	X22	Y22	Z22	X23	Y23	Z23	X24	Y24	Z24	X25	Y25	Z25	X26	Y26	Z26	X27	Y27	Z27	X28	Y28	Z28	X29	Y29	Z29	X30	Y30	Z30	X31	Y31	Z31	X32	Y32	Z32	X33	Y33	Z33	X34	Y34	Z34	X35	Y35	Z35	X36	Y36	Z36	X37	Y37	Z37	X38	Y38	Z38	X39	Y39	Z39	X40	Y40	Z40	X41	Y41	Z41	X42	Y42	Z42	X43	Y43	Z43	X44	Y44	Z44	X45	Y45	Z45	X46	Y46	Z46	X47	Y47	Z47	X48	Y48	Z48	

1	0.000	1513.03455	1112.35107	1667.97998	1381.97229	1115.82434	1652.87878	1518.35339	1245.80286	1613.91785	1389.99011	1247.74023	1604.74365	1461.29773	1250.10217	1454.07520	1461.36877	1282.85583	1124.88708	1463.12781	1139.84253	1377.09070	1472.11890	1101.09558	1202.13000	1385.59558	1323.43176	1283.36572	1623.00342	1200.91052	1410.58752	1709.75623	1183.12231	1214.32593	1730.60950	1167.28613	1104.03943	1753.65454	1114.54163	963.65332	1702.93408	1053.23364	853.51648	1758.39734	1097.41211	845.89862	1753.58118	1042.28784	774.24854	1301.15942	1184.86731	1407.38257	1218.39929	1229.39758	1207.72144	1211.29993	1225.47681	1084.70715	1197.97778	1217.42578	964.01239	1232.50745	1168.07336	821.86774	1192.00012	1221.61206	825.57831	1191.80273	1189.51526	747.66058	1571.50146	1096.61597	972.10223	1351.81262	1107.14075	968.87952	1547.45508	1255.67163	996.55347	1379.32642	1256.72375	988.01501	1637.01563	1162.07947	659.83337	1618.03650	1173.50415	495.10910	1608.29285	1224.85840	242.40381	1564.68542	1240.55005	70.36124	1519.38184	1280.62659	56.70152	1563.72229	1095.52820	41.41328	1292.79102	1080.91602	642.67944	1310.87146	1027.52368	527.97986	1324.57507	1165.51953	312.87592	1374.44495	1275.49475	166.26509	1423.36743	1318.97620	162.27409	1367.86523	1163.34961	63.33307	1455.05188	1213.86572	1705.07617																								 
2	0.010	1513.36072	1102.52600	1667.89612	1382.33557	1106.18372	1652.65466	1519.01807	1235.97021	1613.90137	1390.65637	1238.16516	1604.59949	1462.40747	1240.58911	1454.00989	1462.62537	1273.35596	1124.90198	1463.87024	1130.20874	1377.00952	1473.04712	1091.39209	1202.00049	1387.45837	1314.10449	1283.27954	1623.69434	1190.67871	1410.92139	1711.26392	1169.66553	1215.56396	1732.56152	1151.16138	1105.66138	1755.53125	1095.01477	966.63910	1704.58496	1031.75244	857.77374	1760.36914	1075.13159	849.13513	1755.43018	1018.33002	779.07776	1302.00305	1175.96021	1407.07715	1219.65393	1222.25916	1207.72852	1212.81018	1219.82153	1084.75500	1198.94495	1214.25720	963.97174	1232.55273	1167.79578	820.41577	1192.33777	1221.51111	825.61853	1192.11865	1191.27271	746.75946	1572.55896	1087.82141	971.48511	1353.06799	1097.36584	969.10144	1548.05579	1246.57080	996.42877	1379.88196	1247.16785	988.50195	1637.18225	1155.76477	659.18420	1617.90112	1168.42932	494.57019	1608.13892	1222.60303	242.34859	1564.51477	1240.26257	70.53834	1519.26257	1280.68018	57.04520	1563.56433	1095.12390	41.27152	1293.70996	1068.26477	644.44330	1312.45154	1014.20197	530.17505	1325.18286	1144.72278	308.73880	1374.56616	1247.60107	156.70346	1423.56763	1290.81445	150.32904	1367.31348	1130.00049	60.01657	1455.52722	1204.05042	1704.98279																								 
3	0.020	1513.68274	1092.71423	1667.62671	1382.73499	1096.47632	1652.25635	1519.60010	1226.15881	1613.75793	1391.33899	1228.59509	1604.42920	1463.33484	1230.89758	1453.70813	1463.73010	1263.87292	1124.79688	1464.56604	1120.54309	1376.74170	1473.99414	1081.65210	1201.76794	1389.82935	1305.71179	1283.36938	1624.32874	1180.50391	1411.05859	1712.66223	1156.25537	1216.64355	1734.45984	1135.44092	1107.18811	1757.29761	1075.83008	969.57611	1705.99451	1010.43237	862.13458	1762.28442	1053.03564	852.57031	1756.79187	994.46271	783.94556	1302.84888	1166.93542	1406.61096	1220.93384	1214.99573	1207.59985	1213.94543	1214.02661	1084.81934	1199.74817	1210.98560	963.95874	1232.66028	1167.60840	819.23517	1192.54712	1221.20776	825.72699	1192.16809	1192.94019	746.11060	1573.62915	1079.02698	970.63910	1354.31995	1087.63257	969.11053	1548.53394	1237.49731	996.14850	1380.26892	1237.06104	988.67188	1637.07031	1149.42273	658.45538	1617.69360	1163.31702	493.91574	1607.92139	1220.30688	242.30084	1564.14038	1239.82129	70.63423	1518.88306	1280.25549	57.26520	1563.48877	1094.94824	41.17368	1294.63477	1055.75427	645.97150	1313.92371	1001.42053	532.01361	1325.72083	1124.26318	304.66238	1374.43091	1219.04993	147.10175	1423.51941	1261.66858	137.98219	1365.91516	1096.39319	57.08492	1456.02820	1194.31360	1704.74158																								 
4	0.030	1514.00342	1082.84692	1667.27344	1383.05322	1086.84619	1651.74475	1520.18799	1216.38062	1613.47693	1391.92261	1219.01587	1603.96033	1464.24036	1221.18201	1453.29089	1464.65674	1254.20105	1124.44836	1465.21631	1110.86169	1376.30554	1474.92212	1071.83545	1201.35229	1391.06189	1295.80750	1282.78577	1624.92944	1170.37158	1410.98010	1713.84998	1142.90234	1217.57532	1736.18164	1120.07800	1108.42688	1758.96729	1057.08435	972.42120	1707.26892	989.27478	866.67950	1763.90710	1031.08508	856.11346	1757.81714	970.84747	788.90497	1303.61047	1157.76428	1405.97913	1222.16602	1207.77686	1207.35693	1215.07104	1208.25073	1084.72803	1200.47351	1207.54431	963.83435	1232.56567	1166.96008	817.98627	1192.53345	1220.97290	825.84363	1192.08765	1194.29004	745.39557	1574.72925	1070.30444	969.61108	1355.49060	1077.87292	968.92963	1548.89661	1228.47986	995.68799	1380.64050	1227.32751	988.60065	1637.00647	1143.01062	657.58441	1617.49829	1158.11414	493.26154	1607.61877	1217.91809	242.19946	1563.73865	1239.49426	70.78361	1518.50061	1280.03503	57.57125	1563.22253	1094.52075	40.93803	1295.14514	1043.74548	647.22974	1315.28540	989.18439	533.39655	1325.98755	1104.13062	300.58487	1374.02527	1189.97400	137.54349	1423.29285	1231.66785	125.72256	1363.99719	1062.49500	54.55212	1456.40601	1184.56372	1704.36462																								 
5	0.040	1514.22668	1073.03137	1666.76709	1383.33545	1077.28223	1651.09546	1520.74060	1206.57556	1613.01489	1392.43738	1209.33435	1603.32544	1465.07874	1211.40137	1452.70862	1465.44604	1244.58142	1123.99854	1465.87744	1101.08167	1375.76501	1475.79053	1061.93774	1200.78674	1392.19543	1285.87451	1282.03918	1625.44116	1160.21973	1410.71667	1715.00037	1129.67371	1218.34583	1737.83240	1105.18372	1109.62744	1760.21643	1038.48059	974.86371	1708.19800	968.09412	871.25793	1765.26538	1009.47314	859.60669	1758.56116	947.51062	793.99182	1304.35083	1148.47717	1405.25513	1223.32129	1200.52893	1207.06226	1216.03247	1202.47058	1084.55432	1201.03381	1203.99170	963.68481	1232.25696	1166.00769	816.80133	1192.87634	1219.69629	826.00275	1191.91406	1195.13123	744.81982	1575.79443	1061.54785	968.51715	1356.65967	1067.50244	968.74091	1549.14905	1219.54126	995.06409	1380.92651	1217.66675	988.27863	1637.09497	1136.46985	656.67944	1617.27209	1152.82629	492.47348	1607.42249	1215.58740	242.08511	1563.37134	1239.18787	70.89985	1518.14307	1279.84607	57.80003	1563.32971	1094.55383	41.06789	1295.56775	1032.00110	648.18707	1316.57166	977.62219	534.36597	1326.22583	1084.11707	296.41571	1373.34277	1160.46875	128.20950	1422.90039	1200.85168	113.62928	1361.54932	1028.65955	52.23875	1456.80994	1174.79614	1703.82312																								 
6	0.050	1514.52173	1063.24524	1666.21472	1383.60889	1067.67432	1650.33716	1521.27319	1196.74744	1612.43958	1392.99512	1199.65210	1602.51794	1465.85730	1201.53076	1452.01831	1466.07385	1234.80725	1123.33740	1466.48157	1091.23230	1375.08008	1476.61133	1052.08777	1200.02832	1393.18262	1275.85266	1281.19336	1625.99146	1150.12085	1410.28333	1716.04138	1116.68494	1218.84143	1739.37927	1090.57568	1110.55542	1761.86841	1020.73291	977.69147	1709.20618	947.80579	875.95154	1766.69116	988.58661	863.30762	1759.07336	924.53986	799.11224	1304.98267	1139.05066	1404.29309	1224.32129	1193.33716	1206.69055	1216.82300	1196.61414	1084.26001	1201.51184	1200.20227	963.46051	1232.00610	1164.91431	815.74768	1192.75049	1218.64526	826.33997	1191.47266	1195.77368	744.48181	1576.34106	1051.61023	967.41296	1358.10339	1058.66333	967.54449	1549.32031	1210.64270	994.26776	1381.18188	1207.75037	987.59747	1637.00977	1129.90442	655.69330	1617.15710	1147.45337	491.62222	1607.27344	1213.09497	241.86716	1563.08887	1238.81738	71.01289	1517.90405	1279.83545	58.26006	1563.52161	1094.86804	41.09749	1295.98767	1020.69781	648.55981	1317.76965	966.60242	534.91791	1326.46558	1064.33325	292.25464	1372.46545	1130.53845	119.28210	1422.44983	1169.13513	101.87827	1357.86755	994.99561	50.76966	1457.13635	1165.08093	1703.11108																								 
